<?xml version="1.0" encoding="UTF-8" standalone="no"?>
<!-- Created with Inkscape (http://www.inkscape.org/) -->

<svg
   width="210mm"
   height="297mm"
   viewBox="0 0 210 297"
   version="1.1"
   id="svg8704"
   inkscape:version="1.1 (c68e22c387, 2021-05-23)"
   sodipodi:docname="multiplayer title.svg"
   xmlns:inkscape="http://www.inkscape.org/namespaces/inkscape"
   xmlns:sodipodi="http://sodipodi.sourceforge.net/DTD/sodipodi-0.dtd"
   xmlns="http://www.w3.org/2000/svg"
   xmlns:svg="http://www.w3.org/2000/svg">
  <sodipodi:namedview
     id="namedview8706"
     pagecolor="#ffffff"
     bordercolor="#666666"
     borderopacity="1.0"
     inkscape:pageshadow="2"
     inkscape:pageopacity="0.0"
     inkscape:pagecheckerboard="0"
     inkscape:document-units="mm"
     showgrid="false"
     inkscape:zoom="0.67081229"
     inkscape:cx="396.53418"
     inkscape:cy="560.51448"
     inkscape:window-width="1920"
     inkscape:window-height="1122"
     inkscape:window-x="-8"
     inkscape:window-y="-8"
     inkscape:window-maximized="1"
     inkscape:current-layer="layer1" />
  <defs
     id="defs8701" />
  <g
     inkscape:label="Layer 1"
     inkscape:groupmode="layer"
     id="layer1">
    <g
       aria-label="MultiPLayer"
       id="text9260"
       style="font-size:22.5778px;line-height:1.25;font-family:Flix;-inkscape-font-specification:Flix;writing-mode:tb-rl;text-orientation:upright;fill:#999999;stroke-width:0.264583">
      <path
         d="m 42.661647,45.277288 h 1.512713 c 0.767645,0 1.309512,0.51929 1.354668,1.264357 l 0.745067,12.440368 c 0.04516,0.880534 -0.474133,1.444979 -1.354668,1.444979 h -0.903112 c -0.745067,0 -1.286934,-0.519289 -1.33209,-1.264356 l -0.316089,-4.921961 -1.873957,5.283205 c -0.180623,0.541868 -0.699912,0.903112 -1.264357,0.903112 h -1.738491 c -0.564445,0 -1.083734,-0.361244 -1.264357,-0.903112 l -2.009424,-5.531561 -0.338667,5.170317 c -0.06773,0.767645 -0.587023,1.264356 -1.354668,1.264356 h -0.92569 c -0.857956,0 -1.399824,-0.587022 -1.354668,-1.444979 l 0.835379,-12.440368 c 0.04515,-0.767645 0.587022,-1.264357 1.354668,-1.264357 h 1.512712 c 0.564445,0 1.083735,0.361245 1.264357,0.880534 l 3.138314,8.602142 3.048004,-8.579564 c 0.180622,-0.541867 0.699911,-0.903112 1.264356,-0.903112 z"
         id="path11680"
         style="fill:#999999" />
      <path
         d="m 38.292834,83.004791 c -0.812801,0 -1.580446,-0.135467 -2.280358,-0.428978 -0.72249,-0.293511 -1.354668,-0.677334 -1.919113,-1.174046 -0.564445,-0.564445 -0.993423,-1.196623 -1.286935,-1.896535 -0.316089,-0.677334 -0.496711,-1.399824 -0.519289,-2.190047 v -8.10543 c 0,-0.812801 0.541867,-1.354668 1.354668,-1.354668 h 0.92569 c 0.812801,0 1.354668,0.541867 1.354668,1.354668 v 8.10543 c 0,0.609601 0.248356,1.128891 0.722489,1.557869 0.451556,0.428978 1.016001,0.654756 1.670758,0.654756 0.316089,0 0.6096,-0.06773 0.903112,-0.2032 0.293511,-0.112889 0.541867,-0.293512 0.745067,-0.496712 0.2032,-0.2032 0.383823,-0.428978 0.496712,-0.699912 0.112889,-0.270933 0.158044,-0.564445 0.158044,-0.903112 v -8.015119 c 0,-0.812801 0.541868,-1.354668 1.354668,-1.354668 h 0.903112 c 0.812801,0 1.354668,0.541867 1.354668,1.354668 v 8.015119 c 0.02258,0.767645 -0.112889,1.490135 -0.4064,2.190047 -0.316089,0.699912 -0.745067,1.33209 -1.264357,1.85138 -0.541867,0.541867 -1.174045,0.970845 -1.896535,1.264356 -0.72249,0.31609 -1.490135,0.474134 -2.325514,0.474134 z"
         id="path11682"
         style="fill:#999999" />
      <path
         d="m 41.600513,105.5826 h -6.683029 c -0.812801,0 -1.354668,-0.54187 -1.354668,-1.35467 V 91.78756 c 0,-0.812801 0.541867,-1.354668 1.354668,-1.354668 h 0.925689 c 0.812801,0 1.354668,0.541867 1.354668,1.354668 v 10.31805 h 4.402672 c 0.8128,0 1.354668,0.54187 1.354668,1.35467 v 0.76765 c 0,0.8128 -0.541868,1.35467 -1.354668,1.35467 z"
         id="path11684"
         style="fill:#999999" />
      <path
         d="m 43.542182,114.27503 v 0.79022 c 0,0.8128 -0.541868,1.35467 -1.354668,1.35467 h -2.099736 v 10.34063 c 0,0.8128 -0.541867,1.35467 -1.354668,1.35467 h -0.970845 c -0.812801,0 -1.354668,-0.54187 -1.354668,-1.35467 v -10.34063 h -2.077158 c -0.812801,0 -1.354668,-0.54187 -1.354668,-1.35467 v -0.79022 c 0,-0.8128 0.541867,-1.35467 1.354668,-1.35467 h 7.857075 c 0.8128,0 1.354668,0.54187 1.354668,1.35467 z"
         id="path11686"
         style="fill:#999999" />
      <path
         d="m 38.721812,150.7382 h -0.92569 c -0.8128,0 -1.354668,-0.54187 -1.354668,-1.35467 v -12.44037 c 0,-0.8128 0.541868,-1.35467 1.354668,-1.35467 h 0.92569 c 0.812801,0 1.354668,0.54187 1.354668,1.35467 v 12.44037 c 0,0.8128 -0.541867,1.35467 -1.354668,1.35467 z"
         id="path11688"
         style="fill:#999999" />
      <path
         d="m 36.814002,167.44576 c 0.383823,-0.0226 0.767646,-0.11289 1.12889,-0.27094 0.338667,-0.15804 0.654757,-0.36124 0.92569,-0.6096 0.248356,-0.24835 0.451556,-0.56444 0.609601,-0.90311 0.135467,-0.33867 0.2032,-0.69991 0.2032,-1.08373 0,-0.38383 -0.06773,-0.74507 -0.2032,-1.08374 -0.158045,-0.33867 -0.361245,-0.65476 -0.609601,-0.90311 -0.270933,-0.24836 -0.587023,-0.47413 -0.92569,-0.63218 -0.361244,-0.15804 -0.745067,-0.22578 -1.12889,-0.24836 z m 6.502407,-2.86738 c 0,0.88053 -0.158045,1.69333 -0.496712,2.4384 -0.338667,0.76764 -0.812801,1.44498 -1.399823,2.00942 -0.587023,0.58702 -1.264357,1.03858 -2.05458,1.37725 -0.790223,0.33866 -1.64818,0.49671 -2.551292,0.51929 v 1.19662 c 0,0.74507 -0.474133,1.2192 -1.196623,1.2192 h -1.061157 c -0.812801,0 -1.354668,-0.54187 -1.354668,-1.35467 V 159.5661 c 0,-0.8128 0.541867,-1.35466 1.354668,-1.35466 h 2.25778 c 0.903112,0.0226 1.761069,0.2032 2.551292,0.54186 0.790223,0.33867 1.467557,0.8128 2.05458,1.37725 0.587022,0.56444 1.061156,1.24178 1.399823,2.00942 0.338667,0.76765 0.496712,1.58045 0.496712,2.43841 z"
         id="path11690"
         style="fill:#999999" />
      <path
         d="m 41.589218,195.89378 h -6.660451 c -0.812801,0 -1.354669,-0.54186 -1.354669,-1.35466 v -12.44037 c 0,-0.8128 0.541868,-1.35467 1.354669,-1.35467 h 0.903112 c 0.8128,0 1.354668,0.54187 1.354668,1.35467 v 10.31805 h 4.402671 c 0.812801,0 1.354668,0.54187 1.354668,1.35467 v 0.76765 c 0,0.8128 -0.541867,1.35466 -1.354668,1.35466 z"
         id="path11692"
         style="fill:#999999" />
      <path
         d="m 41.047354,217.61362 -0.745067,-2.032 h -4.018849 l -0.790223,2.05458 c -0.2032,0.51929 -0.699911,0.85796 -1.264356,0.85796 h -1.016001 c -1.151468,0 -1.670758,-0.72249 -1.286935,-1.80623 l 4.425249,-12.41779 c 0.180622,-0.54187 0.699912,-0.90311 1.264357,-0.90311 h 1.512712 c 0.587023,0 1.106313,0.36124 1.286935,0.92569 l 4.199471,12.41779 c 0.361245,1.06116 -0.135467,1.78365 -1.286935,1.78365 h -1.016001 c -0.564445,0 -1.083734,-0.36125 -1.264357,-0.88054 z m -3.883381,-5.35094 h 2.25778 l -1.061157,-2.75449 z"
         id="path11694"
         style="fill:#999999" />
      <path
         d="m 35.606073,239.15287 1.061157,-2.48356 -4.51556,-9.14401 c -0.519289,-1.08373 -0.06773,-1.80622 1.12889,-1.80622 h 1.174046 c 0.496711,0 0.993423,0.29351 1.196623,0.76764 l 2.867381,5.8025 2.415824,-5.73477 c 0.203201,-0.49671 0.699912,-0.83537 1.241779,-0.83537 h 1.083735 c 1.196623,0 1.670757,0.72249 1.219201,1.8288 l -5.350939,12.57583 c -0.225778,0.49671 -0.722489,0.83538 -1.264356,0.83538 h -1.061157 c -1.196624,0 -1.670757,-0.72249 -1.196624,-1.80622 z"
         id="path11696"
         style="fill:#999999" />
      <path
         d="M 41.961741,251.99962 H 36.83658 v 2.28036 h 5.125161 c 0.812801,0 1.354668,0.54186 1.354668,1.35467 v 0.76764 c 0,0.8128 -0.541867,1.35467 -1.354668,1.35467 H 36.83658 v 2.41582 h 5.125161 c 0.812801,0 1.354668,0.54187 1.354668,1.35467 v 0.76765 c 0,0.8128 -0.541867,1.35467 -1.354668,1.35467 h -7.405519 c -0.812801,0 -1.354668,-0.54187 -1.354668,-1.35467 v -12.37264 c 0,-0.8128 0.541867,-1.35467 1.354668,-1.35467 l 7.405519,-0.0452 c 0.812801,0 1.354668,0.54187 1.354668,1.35467 v 0.76764 c 0,0.8128 -0.541867,1.35467 -1.354668,1.35467 z"
         id="path11698"
         style="fill:#999999" />
      <path
         d="m 36.1141,278.98012 c 0.383822,-0.0226 0.745067,-0.11289 1.106312,-0.22578 0.361245,-0.11289 0.677334,-0.24835 0.948268,-0.45155 0.248356,-0.2032 0.451556,-0.42898 0.6096,-0.67734 0.135467,-0.24835 0.203201,-0.49671 0.203201,-0.79022 0,-0.29351 -0.06773,-0.56444 -0.203201,-0.8128 -0.158044,-0.24836 -0.361244,-0.45156 -0.6096,-0.65476 -0.270934,-0.2032 -0.587023,-0.36124 -0.948268,-0.49671 -0.361245,-0.11289 -0.72249,-0.18062 -1.106312,-0.18062 z m 1.151468,3.38667 -0.564445,0.0677 -0.587023,0.0226 v 2.46098 c 0,0.8128 -0.541867,1.35467 -1.354668,1.35467 h -0.92569 c -0.812801,0 -1.354668,-0.54187 -1.354668,-1.35467 v -12.37263 c 0,-0.8128 0.541867,-1.35467 1.354668,-1.35467 H 36.1141 c 0.92569,0.0226 1.761068,0.18062 2.551291,0.47413 0.790223,0.29352 1.467557,0.69992 2.05458,1.19663 0.587023,0.51929 1.061157,1.10631 1.399824,1.78364 0.338667,0.67734 0.519289,1.39983 0.519289,2.19005 0,0.79022 -0.180622,1.51271 -0.519289,2.21262 -0.361245,0.69992 -0.880534,1.30952 -1.535291,1.82881 l 2.302936,3.58987 c 0.699912,1.08373 0.293511,1.80622 -0.970845,1.80622 h -1.399824 c -0.451556,0 -0.903112,-0.24835 -1.151468,-0.63218 z"
         id="path11700"
         style="fill:#999999" />
    </g>
  </g>
</svg>
