<?xml version="1.0" encoding="UTF-8" standalone="no"?>
<!-- Created with Inkscape (http://www.inkscape.org/) -->

<svg
   width="210mm"
   height="297mm"
   viewBox="0 0 210 297"
   version="1.1"
   id="svg5"
   inkscape:version="1.1 (c68e22c387, 2021-05-23)"
   sodipodi:docname="singeplayer.svg"
   xmlns:inkscape="http://www.inkscape.org/namespaces/inkscape"
   xmlns:sodipodi="http://sodipodi.sourceforge.net/DTD/sodipodi-0.dtd"
   xmlns="http://www.w3.org/2000/svg"
   xmlns:svg="http://www.w3.org/2000/svg">
  <sodipodi:namedview
     id="namedview7"
     pagecolor="#ffffff"
     bordercolor="#666666"
     borderopacity="1.0"
     inkscape:pageshadow="2"
     inkscape:pageopacity="0.0"
     inkscape:pagecheckerboard="0"
     inkscape:document-units="mm"
     showgrid="false"
     inkscape:zoom="0.67081229"
     inkscape:cx="396.53418"
     inkscape:cy="560.51448"
     inkscape:window-width="1920"
     inkscape:window-height="1122"
     inkscape:window-x="-8"
     inkscape:window-y="-8"
     inkscape:window-maximized="1"
     inkscape:current-layer="layer1" />
  <defs
     id="defs2" />
  <g
     inkscape:label="Layer 1"
     inkscape:groupmode="layer"
     id="layer1">
    <g
       aria-label="Singleplayer"
       id="text1683"
       style="font-size:22.5778px;line-height:1.25;font-family:Flix;-inkscape-font-specification:Flix;writing-mode:vertical-lr;text-orientation:upright;fill:#999999;stroke-width:0.264583">
      <path
         d="m 26.832048,34.766967 c -0.519289,0 -1.016001,-0.06773 -1.490135,-0.180623 -0.496711,-0.135466 -0.970845,-0.338667 -1.422401,-0.632178 -0.767645,-0.474134 -1.354668,-1.106312 -1.783646,-1.873957 -0.225778,-0.383823 -0.406401,-0.790223 -0.496712,-1.219202 -0.180622,-0.745067 0.361245,-1.264357 1.151468,-1.264357 h 1.828802 c 0.293511,0 0.474134,0.203201 0.541867,0.496712 0.04516,0.180622 0.135467,0.316089 0.225778,0.451556 0.180622,0.225778 0.338667,0.383823 0.496712,0.474134 0.248355,0.158045 0.541867,0.248356 0.835378,0.270934 0.293512,0.02258 0.587023,-0.04516 0.880535,-0.180623 0.2032,-0.06773 0.361244,-0.180622 0.474133,-0.316089 l 0.293512,-0.361245 0.112889,-0.338667 0.02258,-0.248356 -0.02258,-0.270933 -0.112889,-0.361245 -0.293512,-0.361245 c -0.112889,-0.112889 -0.270933,-0.2032 -0.474133,-0.316089 l -0.496712,-0.180623 -0.587023,-0.180622 c -0.361245,-0.112889 -0.72249,-0.225778 -1.106312,-0.383823 -0.383823,-0.135466 -0.767645,-0.316089 -1.151468,-0.541867 -0.519289,-0.293511 -0.948268,-0.677334 -1.286935,-1.12889 -0.338667,-0.451556 -0.587022,-0.948267 -0.722489,-1.467557 -0.158045,-0.519289 -0.2032,-1.061157 -0.158045,-1.625602 0.04516,-0.564445 0.2032,-1.083734 0.496712,-1.603023 0.248356,-0.474134 0.587023,-0.880535 0.970845,-1.219202 0.383823,-0.338667 0.812801,-0.6096 1.286935,-0.8128 0.474134,-0.203201 0.970845,-0.31609 1.512712,-0.361245 0.541868,-0.02258 1.083735,0.02258 1.64818,0.158044 0.541867,0.112889 1.038579,0.31609 1.490135,0.587023 0.428978,0.270934 0.812801,0.587023 1.151468,0.970846 0.316089,0.383822 0.564445,0.790223 0.745067,1.264356 0.06773,0.248356 0.135467,0.474134 0.180622,0.72249 0.09031,0.451556 -0.225778,0.745067 -0.677334,0.745067 h -2.506135 c -0.225778,0 -0.361245,-0.158044 -0.451556,-0.361244 -0.04516,-0.135467 -0.135467,-0.225778 -0.248356,-0.31609 -0.2032,-0.112889 -0.383823,-0.2032 -0.541867,-0.225778 l -0.203201,-0.04516 h -0.361245 l -0.428978,0.158044 c -0.135467,0.06773 -0.248356,0.158045 -0.316089,0.31609 -0.02258,0.02258 -0.04516,0.06773 -0.04516,0.09031 -0.09031,0.2032 -0.112889,0.4064 -0.04516,0.632178 0.06773,0.248356 0.225778,0.428978 0.428978,0.564445 0.2032,0.112889 0.428978,0.225778 0.677334,0.293512 l 0.767645,0.270933 0.745068,0.225778 c 0.248356,0.06773 0.496711,0.180623 0.745067,0.293512 0.948268,0.4064 1.693335,1.016001 2.235202,1.806224 0.541868,0.790223 0.812801,1.693335 0.812801,2.66418 0,0.970846 -0.270933,1.85138 -0.812801,2.641603 -0.541867,0.790223 -1.286934,1.399824 -2.235202,1.806224 -0.383822,0.158045 -0.745067,0.293511 -1.12889,0.361245 -0.383822,0.06773 -0.767645,0.112889 -1.151468,0.112889 z"
         id="path8640" />
      <path
         d="m 27.283565,57.367342 h -0.92569 c -0.812801,0 -1.354668,-0.541867 -1.354668,-1.354668 V 43.572306 c 0,-0.812801 0.541867,-1.354668 1.354668,-1.354668 h 0.92569 c 0.8128,0 1.354668,0.541867 1.354668,1.354668 v 12.440368 c 0,0.812801 -0.541868,1.354668 -1.354668,1.354668 z"
         id="path8642" />
      <path
         d="m 30.918629,64.84058 h 0.903112 c 0.8128,0 1.354668,0.541867 1.354668,1.354668 v 12.417791 c 0,0.8128 -0.541868,1.354668 -1.354668,1.354668 h -1.806224 c -0.451556,0 -0.92569,-0.270934 -1.151468,-0.677334 l -4.763916,-8.150586 v 7.473252 c 0,0.8128 -0.541867,1.354668 -1.354668,1.354668 h -0.92569 c -0.812801,0 -1.354668,-0.541868 -1.354668,-1.354668 V 66.240404 c 0,-0.812801 0.541867,-1.354668 1.354668,-1.354668 h 1.85138 c 0.451556,0 0.925689,0.270933 1.151467,0.677334 l 4.741339,8.128008 v -7.49583 c 0,-0.812801 0.541867,-1.354668 1.354668,-1.354668 z"
         id="path8644" />
      <path
         d="m 28.480204,97.826761 h 2.325514 c -0.428978,0.4064 -0.92569,0.72249 -1.422402,0.903112 -0.541867,0.2032 -1.061156,0.316089 -1.603024,0.316089 -0.564445,0 -1.106312,-0.112889 -1.603023,-0.316089 -0.541868,-0.180622 -0.993424,-0.496712 -1.399824,-0.903112 -0.428978,-0.383823 -0.745068,-0.857956 -0.92569,-1.33209 -0.225778,-0.496712 -0.338667,-0.993424 -0.338667,-1.535291 0,-0.564445 0.112889,-1.106312 0.338667,-1.603024 0.180622,-0.496711 0.496712,-0.925689 0.92569,-1.309512 0.4064,-0.4064 0.857956,-0.72249 1.399824,-0.903112 0.496711,-0.2032 1.038578,-0.316089 1.603023,-0.316089 0.541868,0 1.061157,0.112889 1.603024,0.316089 0.248356,0.09031 0.51929,0.225778 0.767645,0.383823 0.428979,0.270933 0.903113,0.293511 1.264357,-0.06773 l 0.880535,-0.857956 c 0.632178,-0.609601 0.632178,-1.422402 -0.09031,-1.919113 -0.474133,-0.31609 -0.970845,-0.587023 -1.490134,-0.790223 -0.948268,-0.338667 -1.941691,-0.51929 -2.935115,-0.51929 -1.038578,0 -2.009424,0.180623 -2.980269,0.51929 -0.993424,0.383822 -1.873958,0.970845 -2.619025,1.693335 -0.72249,0.722489 -1.309513,1.512712 -1.693335,2.438402 -0.406401,0.903112 -0.609601,1.896535 -0.609601,2.935114 0,1.038579 0.2032,1.986847 0.609601,2.867381 0.383822,0.903112 0.970845,1.738491 1.693335,2.483559 0.745067,0.72249 1.625601,1.28693 2.619025,1.6256 0.970845,0.38382 1.941691,0.58702 2.935114,0.58702 1.038579,0 2.077157,-0.2032 3.025425,-0.58702 0.790223,-0.27093 1.783646,-0.85796 2.551292,-1.44498 0.270933,-0.22578 0.451556,-0.632177 0.451556,-0.970844 v -3.860804 c 0,-0.812801 -0.541868,-1.354668 -1.354668,-1.354668 h -3.928538 c -0.812801,0 -1.354668,0.541867 -1.354668,1.354668 v 0.812801 c 0,0.812801 0.541867,1.354668 1.354668,1.354668 z"
         id="path8646" />
      <path
         d="m 30.162265,125.10075 h -6.683029 c -0.812801,0 -1.354668,-0.54187 -1.354668,-1.35467 v -12.44037 c 0,-0.8128 0.541867,-1.35467 1.354668,-1.35467 h 0.92569 c 0.812801,0 1.354668,0.54187 1.354668,1.35467 v 10.31806 h 4.402671 c 0.812801,0 1.354668,0.54186 1.354668,1.35466 v 0.76765 c 0,0.8128 -0.541867,1.35467 -1.354668,1.35467 z"
         id="path8648" />
      <path
         d="m 30.523493,136.05097 h -5.125161 v 2.28036 h 5.125161 c 0.812801,0 1.354668,0.54186 1.354668,1.35466 v 0.76765 c 0,0.8128 -0.541867,1.35467 -1.354668,1.35467 h -5.125161 v 2.41582 h 5.125161 c 0.812801,0 1.354668,0.54187 1.354668,1.35467 v 0.76764 c 0,0.81281 -0.541867,1.35467 -1.354668,1.35467 h -7.405518 c -0.812801,0 -1.354668,-0.54186 -1.354668,-1.35467 v -12.37263 c 0,-0.8128 0.541867,-1.35467 1.354668,-1.35467 l 7.405518,-0.0451 c 0.812801,0 1.354668,0.54186 1.354668,1.35466 v 0.76765 c 0,0.8128 -0.541867,1.35467 -1.354668,1.35467 z"
         id="path8650" />
      <path
         d="m 25.375767,164.3861 c 0.4064,-0.0226 0.790223,-0.11289 1.151468,-0.27094 0.338667,-0.15804 0.654756,-0.36124 0.903112,-0.6096 0.248356,-0.24835 0.451556,-0.56444 0.609601,-0.90311 0.135466,-0.33867 0.2032,-0.67733 0.2032,-1.06116 0,-0.38382 -0.06773,-0.76764 -0.2032,-1.10631 -0.158045,-0.33867 -0.361245,-0.63218 -0.609601,-0.88053 -0.248356,-0.24836 -0.564445,-0.47414 -0.903112,-0.63218 -0.361245,-0.15805 -0.745068,-0.24836 -1.151468,-0.24836 z m 6.524984,-2.84481 c 0,0.85796 -0.180622,1.67076 -0.519289,2.41583 -0.338667,0.76764 -0.812801,1.44498 -1.399824,2.00942 -0.587022,0.56445 -1.264356,1.03858 -2.054579,1.37725 -0.790223,0.33866 -1.625602,0.51929 -2.551292,0.51929 v 1.19662 c 0,0.74507 -0.474134,1.2192 -1.196623,1.2192 h -1.083735 c -0.812801,0 -1.354668,-0.54187 -1.354668,-1.35467 v -12.41779 c 0,-0.8128 0.541867,-1.35466 1.354668,-1.35466 h 2.280358 c 0.92569,0.0226 1.761069,0.22577 2.551292,0.56444 0.790223,0.33867 1.467557,0.8128 2.054579,1.37725 0.587023,0.56444 1.061157,1.24178 1.399824,1.98684 0.338667,0.76765 0.519289,1.58045 0.519289,2.46098 z"
         id="path8652" />
      <path
         d="m 30.162265,192.83414 h -6.683029 c -0.812801,0 -1.354668,-0.54187 -1.354668,-1.35467 V 179.0391 c 0,-0.8128 0.541867,-1.35467 1.354668,-1.35467 h 0.92569 c 0.812801,0 1.354668,0.54187 1.354668,1.35467 v 10.31806 h 4.402671 c 0.812801,0 1.354668,0.54186 1.354668,1.35467 v 0.76764 c 0,0.8128 -0.541867,1.35467 -1.354668,1.35467 z"
         id="path8654" />
      <path
         d="m 29.609107,214.55398 -0.745068,-2.03201 h -4.018848 l -0.790223,2.05458 c -0.2032,0.51929 -0.699912,0.85796 -1.264357,0.85796 H 21.77461 c -1.151468,0 -1.670757,-0.72249 -1.286935,-1.80622 l 4.425249,-12.41779 c 0.180623,-0.54187 0.699912,-0.90312 1.264357,-0.90312 h 1.512713 c 0.587022,0 1.106312,0.36125 1.286934,0.92569 l 4.199471,12.41779 c 0.361245,1.06116 -0.135467,1.78365 -1.286934,1.78365 h -1.016001 c -0.564445,0 -1.083735,-0.36124 -1.264357,-0.88053 z m -3.883382,-5.35094 h 2.25778 l -1.061157,-2.75449 z"
         id="path8656" />
      <path
         d="m 24.167826,236.09322 1.061156,-2.48356 -4.51556,-9.144 c -0.519289,-1.08374 -0.06773,-1.80623 1.12889,-1.80623 h 1.174046 c 0.496712,0 0.993423,0.29351 1.196623,0.76765 l 2.867381,5.80249 2.415825,-5.73476 c 0.2032,-0.49671 0.699912,-0.83538 1.241779,-0.83538 H 31.8217 c 1.196624,0 1.670757,0.72249 1.219201,1.8288 l -5.350938,12.57584 c -0.225778,0.49671 -0.72249,0.83538 -1.264357,0.83538 h -1.061157 c -1.196623,0 -1.670757,-0.72249 -1.196623,-1.80623 z"
         id="path8658" />
      <path
         d="m 30.523493,248.93998 h -5.125161 v 2.28035 h 5.125161 c 0.812801,0 1.354668,0.54187 1.354668,1.35467 v 0.76765 c 0,0.8128 -0.541867,1.35466 -1.354668,1.35466 h -5.125161 v 2.41583 h 5.125161 c 0.812801,0 1.354668,0.54187 1.354668,1.35467 v 0.76764 c 0,0.8128 -0.541867,1.35467 -1.354668,1.35467 h -7.405518 c -0.812801,0 -1.354668,-0.54187 -1.354668,-1.35467 v -12.37263 c 0,-0.8128 0.541867,-1.35467 1.354668,-1.35467 l 7.405518,-0.0452 c 0.812801,0 1.354668,0.54187 1.354668,1.35467 v 0.76765 c 0,0.8128 -0.541867,1.35467 -1.354668,1.35467 z"
         id="path8660" />
      <path
         d="m 24.675852,275.92045 c 0.383823,-0.0226 0.745068,-0.11289 1.106312,-0.22578 0.361245,-0.11289 0.677334,-0.24836 0.948268,-0.45156 0.248356,-0.2032 0.451556,-0.42898 0.609601,-0.67733 0.135466,-0.24836 0.2032,-0.49671 0.2032,-0.79023 0,-0.29351 -0.06773,-0.56444 -0.2032,-0.8128 -0.158045,-0.24835 -0.361245,-0.45155 -0.609601,-0.65475 -0.270934,-0.2032 -0.587023,-0.36125 -0.948268,-0.49671 -0.361244,-0.11289 -0.722489,-0.18063 -1.106312,-0.18063 z m 1.151468,3.38667 -0.564445,0.0677 -0.587023,0.0226 v 2.46098 c 0,0.8128 -0.541867,1.35467 -1.354668,1.35467 h -0.92569 c -0.812801,0 -1.354668,-0.54187 -1.354668,-1.35467 v -12.37264 c 0,-0.8128 0.541867,-1.35467 1.354668,-1.35467 h 2.280358 c 0.92569,0.0226 1.761069,0.18063 2.551292,0.47414 0.790223,0.29351 1.467557,0.69991 2.054579,1.19662 0.587023,0.51929 1.061157,1.10631 1.399824,1.78365 0.338667,0.67733 0.51929,1.39982 0.51929,2.19004 0,0.79023 -0.180623,1.51272 -0.51929,2.21263 -0.361245,0.69991 -0.880534,1.30951 -1.53529,1.8288 l 2.302935,3.58987 c 0.699912,1.08374 0.293512,1.80623 -0.970845,1.80623 h -1.399824 c -0.451556,0 -0.903112,-0.24836 -1.151468,-0.63218 z"
         id="path8662" />
    </g>
    <path
       style="fill:none;stroke-width:1.49073"
       d="m 84.17851,640.68169 c -0.424931,-1.10735 -0.588026,-13.39282 -0.362433,-27.30104 l 0.410168,-25.28767 h 9.954104 c 11.114051,0 15.744651,2.37996 21.723911,11.16532 8.24619,12.11617 -0.23028,30.83159 -15.23933,33.64731 -4.097415,0.76868 -5.178231,1.72436 -5.546354,4.90419 -0.376461,3.25186 -1.314798,4.03211 -5.312343,4.41736 -3.059002,0.2948 -5.14094,-0.27694 -5.627723,-1.54547 z m 19.70383,-22.2886 c 2.12501,-1.99635 3.45022,-4.96548 3.45022,-7.73025 0,-5.101 -5.0819,-11.38938 -9.204236,-11.38938 -2.393065,0 -2.721604,1.34965 -2.721604,11.18047 0,12.47479 1.8265,14.18568 8.47562,7.93916 z"
       id="path7786"
       transform="scale(0.26458333)" />
  </g>
</svg>
