<?xml version="1.0" encoding="UTF-8" standalone="no"?>
<!-- Created with Inkscape (http://www.inkscape.org/) -->

<svg
   width="210mm"
   height="297mm"
   viewBox="0 0 210 297"
   version="1.1"
   id="svg5"
   inkscape:version="1.1 (c68e22c387, 2021-05-23)"
   sodipodi:docname="svgTitlePath.svg"
   xmlns:inkscape="http://www.inkscape.org/namespaces/inkscape"
   xmlns:sodipodi="http://sodipodi.sourceforge.net/DTD/sodipodi-0.dtd"
   xmlns="http://www.w3.org/2000/svg"
   xmlns:svg="http://www.w3.org/2000/svg">
  <sodipodi:namedview
     id="namedview7"
     pagecolor="#ffffff"
     bordercolor="#666666"
     borderopacity="1.0"
     inkscape:pageshadow="2"
     inkscape:pageopacity="0.0"
     inkscape:pagecheckerboard="0"
     inkscape:document-units="mm"
     showgrid="false"
     inkscape:zoom="0.67081229"
     inkscape:cx="35.77752"
     inkscape:cy="560.51448"
     inkscape:window-width="1920"
     inkscape:window-height="1122"
     inkscape:window-x="-8"
     inkscape:window-y="-8"
     inkscape:window-maximized="1"
     inkscape:current-layer="layer1" />
  <defs
     id="defs2" />
  <g
     inkscape:label="Layer 1"
     inkscape:groupmode="layer"
     id="layer1">
    <g
       aria-label="Tick-Tack-Toe!"
       id="text4059"
       style="font-size:22.5778px;line-height:1.25;font-family:Flix;-inkscape-font-specification:Flix;stroke-width:0.264583">
      <path
         d="m 33.668682,62.283313 v 0.790223 c 0,0.812801 -0.541867,1.354668 -1.354668,1.354668 l -2.122313,0.02258 v 10.318055 c 0,0.8128 -0.541867,1.354668 -1.354668,1.354668 h -0.92569 c -0.812801,0 -1.354668,-0.541868 -1.354668,-1.354668 V 64.450782 l -2.099735,-0.02258 c -0.812801,0 -1.354669,-0.541867 -1.354669,-1.354668 v -0.790223 c 0,-0.812801 0.541868,-1.354668 1.354669,-1.354668 h 7.857074 c 0.812801,0 1.354668,0.541867 1.354668,1.354668 z"
         id="path10612" />
      <path
         d="m 36.400573,76.123505 h -0.92569 c -0.812801,0 -1.354668,-0.541868 -1.354668,-1.354668 V 62.328468 c 0,-0.8128 0.541867,-1.354668 1.354668,-1.354668 h 0.92569 c 0.812801,0 1.354668,0.541868 1.354668,1.354668 v 12.440369 c 0,0.8128 -0.541867,1.354668 -1.354668,1.354668 z"
         id="path10614" />
      <path
         d="m 46.063866,76.123505 c -0.993423,0 -1.986846,-0.180623 -2.957692,-0.564445 -0.970845,-0.361245 -1.85138,-0.903112 -2.619025,-1.64818 -0.745067,-0.745067 -1.309512,-1.580446 -1.693335,-2.483558 -0.383822,-0.880534 -0.587023,-1.85138 -0.587023,-2.867381 0,-1.038578 0.203201,-2.009424 0.587023,-2.935114 0.383823,-0.92569 0.948268,-1.73849 1.693335,-2.438402 0.767645,-0.745068 1.64818,-1.286935 2.619025,-1.670757 0.970846,-0.361245 1.964269,-0.541868 2.98027,-0.541868 1.016001,0 1.986846,0.180623 2.957692,0.541868 0.541867,0.225778 1.038579,0.474133 1.512712,0.790223 0.72249,0.474133 0.72249,1.286934 0.09031,1.873957 l -0.92569,0.880534 c -0.361245,0.361245 -0.835379,0.338667 -1.264357,0.06773 -0.248356,-0.158045 -0.496712,-0.293512 -0.767645,-0.406401 -0.51929,-0.2032 -1.061157,-0.293511 -1.603024,-0.293511 -0.541867,0 -1.083735,0.09031 -1.603024,0.293511 -0.51929,0.2032 -0.993423,0.51929 -1.399824,0.92569 -0.4064,0.383823 -0.722489,0.835379 -0.92569,1.33209 -0.2032,0.496712 -0.316089,1.016001 -0.316089,1.580446 0,0.51929 0.112889,1.038579 0.316089,1.535291 0.203201,0.496711 0.51929,0.948267 0.92569,1.33209 0.406401,0.4064 0.880534,0.699912 1.399824,0.903112 0.519289,0.2032 1.061157,0.316089 1.603024,0.316089 0.541867,0 1.083734,-0.112889 1.603024,-0.316089 0.270933,-0.09031 0.519289,-0.225778 0.767645,-0.383823 0.428978,-0.270933 0.903112,-0.293511 1.264357,0.06773 l 0.92569,0.903112 c 0.632178,0.587023 0.632178,1.399824 -0.06773,1.873957 -0.496711,0.31609 -0.993423,0.564445 -1.512713,0.767646 -0.970845,0.383822 -1.964268,0.564445 -3.002847,0.564445 z"
         id="path10616" />
      <path
         d="m 64.171231,62.757447 -6.186317,5.802494 6.186317,5.779917 c 1.128891,1.061157 0.857957,1.783647 -0.699911,1.783647 h -2.077158 c -0.338667,0 -0.699912,-0.135467 -0.92569,-0.361245 L 55.77229,71.382166 v 3.386671 c 0,0.8128 -0.541868,1.354668 -1.354668,1.354668 h -0.92569 c -0.812801,0 -1.354668,-0.541868 -1.354668,-1.354668 V 62.328468 c 0,-0.8128 0.541867,-1.354668 1.354668,-1.354668 h 0.92569 c 0.8128,0 1.354668,0.541868 1.354668,1.354668 v 3.454404 l 4.71876,-4.447827 c 0.225778,-0.2032 0.609601,-0.361245 0.92569,-0.361245 h 2.05458 c 1.557868,0 1.828802,0.699912 0.699911,1.783647 z"
         id="path10618" />
      <path
         d="m 76.363223,70.32101 -7.631297,-0.02258 c -0.812801,0 -1.354668,-0.541867 -1.354668,-1.354668 v -0.767645 c 0,-0.812801 0.541867,-1.354668 1.354668,-1.354668 l 7.631297,0.02258 c 0.812801,0 1.354668,0.541867 1.354668,1.354668 v 0.767645 c 0,0.812801 -0.541867,1.354668 -1.354668,1.354668 z"
         id="path10620" />
      <path
         d="m 89.638966,62.283313 v 0.790223 c 0,0.812801 -0.541867,1.354668 -1.354668,1.354668 l -2.122314,0.02258 v 10.318055 c 0,0.8128 -0.541867,1.354668 -1.354668,1.354668 h -0.925689 c -0.812801,0 -1.354669,-0.541868 -1.354669,-1.354668 V 64.450782 l -2.099735,-0.02258 c -0.812801,0 -1.354668,-0.541867 -1.354668,-1.354668 v -0.790223 c 0,-0.812801 0.541867,-1.354668 1.354668,-1.354668 h 7.857075 c 0.812801,0 1.354668,0.541867 1.354668,1.354668 z"
         id="path10622" />
      <path
         d="m 99.844109,75.24297 -0.745067,-2.032002 h -4.018849 l -0.790223,2.05458 c -0.2032,0.51929 -0.699912,0.857957 -1.264357,0.857957 h -1.016001 c -1.151467,0 -1.670757,-0.72249 -1.286934,-1.806224 L 95.147927,61.89949 c 0.180622,-0.541867 0.699911,-0.903112 1.264357,-0.903112 h 1.512712 c 0.587023,0 1.106312,0.361245 1.286935,0.92569 l 4.199469,12.41779 c 0.36125,1.061157 -0.13547,1.783647 -1.28693,1.783647 h -1.016 c -0.56445,0 -1.08374,-0.361245 -1.264361,-0.880535 z m -3.883381,-5.350938 h 2.25778 L 97.157351,67.13754 Z"
         id="path10624" />
      <path
         d="m 110.77174,76.123505 c -0.99342,0 -1.98685,-0.180623 -2.95769,-0.564445 -0.97085,-0.361245 -1.85138,-0.903112 -2.61903,-1.64818 -0.74506,-0.745067 -1.30951,-1.580446 -1.69333,-2.483558 -0.38383,-0.880534 -0.58703,-1.85138 -0.58703,-2.867381 0,-1.038578 0.2032,-2.009424 0.58703,-2.935114 0.38382,-0.92569 0.94827,-1.73849 1.69333,-2.438402 0.76765,-0.745068 1.64818,-1.286935 2.61903,-1.670757 0.97084,-0.361245 1.96427,-0.541868 2.98027,-0.541868 1.016,0 1.98684,0.180623 2.95769,0.541868 0.54187,0.225778 1.03858,0.474133 1.51271,0.790223 0.72249,0.474133 0.72249,1.286934 0.0903,1.873957 l -0.92569,0.880534 c -0.36124,0.361245 -0.83538,0.338667 -1.26435,0.06773 -0.24836,-0.158045 -0.49672,-0.293512 -0.76765,-0.406401 -0.51929,-0.2032 -1.06116,-0.293511 -1.60302,-0.293511 -0.54187,0 -1.08374,0.09031 -1.60303,0.293511 -0.51929,0.2032 -0.99342,0.51929 -1.39982,0.92569 -0.4064,0.383823 -0.72249,0.835379 -0.92569,1.33209 -0.2032,0.496712 -0.31609,1.016001 -0.31609,1.580446 0,0.51929 0.11289,1.038579 0.31609,1.535291 0.2032,0.496711 0.51929,0.948267 0.92569,1.33209 0.4064,0.4064 0.88053,0.699912 1.39982,0.903112 0.51929,0.2032 1.06116,0.316089 1.60303,0.316089 0.54186,0 1.08373,-0.112889 1.60302,-0.316089 0.27093,-0.09031 0.51929,-0.225778 0.76765,-0.383823 0.42897,-0.270933 0.90311,-0.293511 1.26435,0.06773 l 0.92569,0.903112 c 0.63218,0.587023 0.63218,1.399824 -0.0677,1.873957 -0.49671,0.31609 -0.99342,0.564445 -1.51271,0.767646 -0.97085,0.383822 -1.96427,0.564445 -3.00285,0.564445 z"
         id="path10626" />
      <path
         d="m 128.87911,62.757447 -6.18632,5.802494 6.18632,5.779917 c 1.12889,1.061157 0.85795,1.783647 -0.69992,1.783647 h -2.07715 c -0.33867,0 -0.69992,-0.135467 -0.92569,-0.361245 l -4.69619,-4.380094 v 3.386671 c 0,0.8128 -0.54186,1.354668 -1.35466,1.354668 h -0.92569 c -0.8128,0 -1.35467,-0.541868 -1.35467,-1.354668 V 62.328468 c 0,-0.8128 0.54187,-1.354668 1.35467,-1.354668 h 0.92569 c 0.8128,0 1.35466,0.541868 1.35466,1.354668 v 3.454404 l 4.71876,-4.447827 c 0.22578,-0.2032 0.6096,-0.361245 0.92569,-0.361245 h 2.05458 c 1.55787,0 1.82881,0.699912 0.69992,1.783647 z"
         id="path10628" />
      <path
         d="m 141.0711,70.32101 -7.6313,-0.02258 c -0.8128,0 -1.35466,-0.541867 -1.35466,-1.354668 v -0.767645 c 0,-0.812801 0.54186,-1.354668 1.35466,-1.354668 l 7.6313,0.02258 c 0.8128,0 1.35467,0.541867 1.35467,1.354668 v 0.767645 c 0,0.812801 -0.54187,1.354668 -1.35467,1.354668 z"
         id="path10630" />
      <path
         d="m 154.34684,62.283313 v 0.790223 c 0,0.812801 -0.54187,1.354668 -1.35467,1.354668 l -2.12232,0.02258 v 10.318055 c 0,0.8128 -0.54186,1.354668 -1.35466,1.354668 h -0.92569 c -0.8128,0 -1.35467,-0.541868 -1.35467,-1.354668 V 64.450782 l -2.09974,-0.02258 c -0.8128,0 -1.35466,-0.541867 -1.35466,-1.354668 v -0.790223 c 0,-0.812801 0.54186,-1.354668 1.35466,-1.354668 h 7.85708 c 0.8128,0 1.35467,0.541867 1.35467,1.354668 z"
         id="path10632" />
      <path
         d="m 162.65545,72.646523 c 0.6096,0 1.17405,-0.112889 1.69334,-0.338667 0.49671,-0.2032 0.94826,-0.496711 1.33209,-0.880534 0.38382,-0.361245 0.67733,-0.790223 0.90311,-1.286935 0.22578,-0.496711 0.33867,-1.016001 0.33867,-1.580446 0,-0.564445 -0.11289,-1.083734 -0.33867,-1.580446 -0.22578,-0.496711 -0.51929,-0.948267 -0.90311,-1.33209 -0.38383,-0.383823 -0.83538,-0.677334 -1.33209,-0.880534 -0.51929,-0.2032 -1.08374,-0.293512 -1.69334,-0.293512 -0.58702,0 -1.12889,0.09031 -1.6256,0.293512 -0.51929,0.2032 -0.94827,0.496711 -1.33209,0.880534 -0.38382,0.383823 -0.69991,0.835379 -0.92569,1.33209 -0.22578,0.496712 -0.33867,1.016001 -0.33867,1.580446 0,0.564445 0.11289,1.083735 0.33867,1.580446 0.22578,0.496712 0.54187,0.92569 0.92569,1.286935 0.38382,0.383823 0.8128,0.677334 1.33209,0.880534 0.49671,0.225778 1.03858,0.338667 1.6256,0.338667 z m 0,-11.672723 c 1.10631,0 2.12232,0.203201 3.09316,0.609601 0.94827,0.4064 1.78365,0.948268 2.50614,1.603024 0.72249,0.677334 1.28693,1.490135 1.69333,2.415824 0.4064,0.92569 0.6096,1.919114 0.6096,2.957692 0,1.038579 -0.2032,2.009425 -0.6096,2.935114 -0.4064,0.92569 -0.97084,1.715913 -1.69333,2.393247 -0.72249,0.699912 -1.55787,1.241779 -2.50614,1.625602 -0.97084,0.4064 -1.98685,0.609601 -3.09316,0.609601 -1.06115,0 -2.07716,-0.203201 -3.048,-0.609601 -0.97085,-0.383823 -1.78365,-0.92569 -2.48356,-1.625602 -0.69991,-0.677334 -1.26436,-1.467557 -1.69333,-2.393247 -0.42898,-0.925689 -0.63218,-1.896535 -0.63218,-2.935114 0,-1.038578 0.2032,-2.032002 0.63218,-2.957692 0.42897,-0.925689 0.99342,-1.73849 1.69333,-2.415824 0.69991,-0.654756 1.51271,-1.196624 2.48356,-1.603024 0.97084,-0.4064 1.98685,-0.609601 3.048,-0.609601 z"
         id="path10634" />
      <path
         d="m 179.76938,64.473359 h -5.12516 v 2.280358 h 5.12516 c 0.8128,0 1.35467,0.541868 1.35467,1.354668 v 0.767646 c 0,0.8128 -0.54187,1.354668 -1.35467,1.354668 h -5.12516 v 2.415824 h 5.12516 c 0.8128,0 1.35467,0.541868 1.35467,1.354668 v 0.767646 c 0,0.8128 -0.54187,1.354668 -1.35467,1.354668 h -7.40552 c -0.8128,0 -1.35467,-0.541868 -1.35467,-1.354668 V 62.396202 c 0,-0.812801 0.54187,-1.354668 1.35467,-1.354668 l 7.40552,-0.04516 c 0.8128,0 1.35467,0.541867 1.35467,1.354668 v 0.767645 c 0,0.812801 -0.54187,1.354668 -1.35467,1.354668 z"
         id="path10636" />
      <path
         d="m 182.47868,69.553365 v -7.473252 c 0,-0.812801 0.54187,-1.354668 1.35467,-1.354668 h 0.92569 c 0.8128,0 1.35467,0.541867 1.35467,1.354668 v 7.473252 c 0,0.8128 -0.54187,1.354668 -1.35467,1.354668 h -0.92569 c -0.8128,0 -1.35467,-0.541868 -1.35467,-1.354668 z m 1.80622,2.980269 c 0.51929,0 0.97085,0.180623 1.35467,0.51929 0.36125,0.361245 0.54187,0.790223 0.54187,1.286934 0,0.496712 -0.18062,0.92569 -0.54187,1.264357 -0.38382,0.338667 -0.83538,0.51929 -1.35467,0.51929 -0.51928,0 -0.94826,-0.180623 -1.30951,-0.51929 -0.36124,-0.338667 -0.54186,-0.767645 -0.54186,-1.264357 0,-0.496711 0.18062,-0.925689 0.54186,-1.286934 0.36125,-0.338667 0.79023,-0.51929 1.30951,-0.51929 z"
         id="path10638" />
    </g>
  </g>
</svg>
